<svg xmlns="http://www.w3.org/2000/svg" viewBox="0 0 152.17 105.06"><defs><style>.cls-3{fill:#0f8392}</style></defs><g id="Layer_2" data-name="Layer 2"><g id="Crafticons_-_Simple_Set" data-name="Crafticons - Simple Set"><g id="Layer_6" data-name="Layer 6"><path d="M133.16 77.74a8.31 8.31 0 0 1-4.37 4.26L81.2 103.69a11 11 0 0 1-10 .37L22.77 81.9s-3.22-.52-5-7L0 24.61l8.15 5.54L5.1 18.64s14.56 10 18.32 10.59L17.37 8.37s14.81 12.42 21.42 14.41c0 0-3.82-20.84-3.58-22.78 0 0 8.6 13.94 16.09 21.59A96.52 96.52 0 0 1 58.7 30c2.51 3.41 8.81 11.27 13 17a60.79 60.79 0 0 1 4.09 6.43s22.55-14.32 35.87-19.2c1.94-.7 6.71-1.84 9.13-2.58 6.33-1.92 17.73-5.17 24.28-12 .38-.4 2.4-2.42 2.4-2.42l-4.08 13.09 8.8-6.05z" fill="#fff"/><path d="M2.29 27.65a53.44 53.44 0 0 0 13 7.81c2.93 1.23 11.16 2.9 18.34 4.72 11 2.8 24.69 8.09 42.06 16.37v46.73a8.73 8.73 0 0 1-4.08-1l-49-22.08a5.1 5.1 0 0 1-2.44-2.6zm147.37 0a53.44 53.44 0 0 1-13 7.81c-2.94 1.23-11.16 2.9-18.34 4.72C107.29 43 93.41 48.24 76 56.52v46.79s2.85 0 4.31-1l49-22.08a5.06 5.06 0 0 0 2.43-2.6z" fill="#8cc63f"/><path class="cls-3" d="M109.2 41.35l2.79-.94c1.54-.49 5.81-1.76 9.92-2.64l.83-.17c5.87-1.39 11.6-2.66 13.94-3.64a50.2 50.2 0 0 0 4.92-2.38l3.4-10.46s-6.66 7.54-19.38 10.5c0 0-5.16 1.34-10.55 3-3.15 1-11.25 4.4-13 5.31C96.36 43 82.56 50.3 78.9 53.67a273.15 273.15 0 0 1 30.3-12.32zm-93.93-7.58c.18.08.4.16.63.24.85.28 1.74.55 2.64.81 3.9 1.07 9.77 2.33 15.07 3.67 10.37 2.63 23 7.44 38.89 14.87-19.06-14.83-46.18-21.62-46.18-21.62C15.76 29.33 7.05 21.56 7.05 21.56l2.84 9.57a50 50 0 0 0 5.38 2.64z"/><path class="cls-3" d="M44.05 36l.93.42c8.22 3.36 17.89 8.09 26.21 14.31-1.9-2-12.07-12.45-20.32-19a80.24 80.24 0 0 0-10.63-6.59l-4.09-1.91c-.85-.4-2.59-1.29-3.71-2C29.06 19 22 14.42 19.65 11.36l5.18 18.15A186.26 186.26 0 0 1 44.05 36z"/><path class="cls-3" d="M40.68 23.67l.65.3A82 82 0 0 1 52 30.56a234.54 234.54 0 0 1 18.09 16.78c-3-3.84-9.58-12.48-13.22-17.17-1.32-1.7-3.55-4.27-5.2-6.09C47.06 19 38.11 8.64 36.38 3.09l4.2 20.5z"/></g></g></g></svg>