<?xml version="1.0" encoding="utf-8"?>
<!-- Generator: Adobe Illustrator 23.1.1, SVG Export Plug-In . SVG Version: 6.00 Build 0)  -->
<svg version="1.1" id="Layer_1" xmlns="http://www.w3.org/2000/svg" xmlns:xlink="http://www.w3.org/1999/xlink" x="0px" y="0px"
	 viewBox="0 0 148.6 79.8" style="enable-background:new 0 0 148.6 79.8;" xml:space="preserve">
<style type="text/css">
	.st0{fill:#008B98;}
	.st1{fill:#8BC53F;}
	.st2{fill:#FFFFFF;}
	.st3{font-family:'iconmonstr-iconic-font';}
	.st4{font-size:12px;}
</style>
<g>
	<path class="st0" d="M66.5,52.3c1.8,0.4,3.2,1,4.2,1.6c1,0.6,1.7,1.4,2.2,2.4c0.5,0.9,0.8,2,0.8,3.3c0.1,1.2,0.1,2.6,0.1,4.2V66
		H18.1v-2.3c0-1.6,0-2.9,0.1-4.2c0.1-1.2,0.4-2.3,0.9-3.2c0.5-0.9,1.2-1.7,2.2-2.4c1-0.6,2.4-1.2,4.2-1.6c1.9-0.5,3.8-0.9,5.6-1.4
		c1.8-0.5,3.4-1.1,4.6-1.8c1.2-0.7,2-1.7,2.4-2.8c0.4-1.1,0.1-2.5-0.8-4.2c-2.7-5.1-4.4-9.6-4.9-13.6c-0.6-4-0.3-7.3,0.7-10
		c1-2.7,2.7-4.8,5-6.2c2.3-1.4,4.9-2.1,7.9-2.1c1.9,0,3.8,0.3,5.4,0.9c1.7,0.6,3.2,1.5,4.4,2.7s2.3,2.7,3,4.5
		c0.7,1.8,1.1,3.8,1.1,6.2c0,2.4-0.4,5-1.2,7.9c-0.8,2.9-2.2,6.1-4,9.6c-0.9,1.7-1.2,3.1-0.8,4.2c0.4,1.1,1.2,2,2.4,2.8
		c1.2,0.7,2.7,1.4,4.5,1.8C62.6,51.3,64.5,51.8,66.5,52.3z"/>
	<path class="st1" d="M122.4,55.1c1.7,0.4,3.1,0.9,4.1,1.6c1,0.7,1.7,1.5,2.2,2.3c0.5,0.8,0.8,1.7,0.9,2.6c0.1,0.9,0.2,1.8,0.2,2.7
		V66H73.9v-1.6c0-0.9,0.1-1.8,0.2-2.7c0.1-0.9,0.4-1.8,0.9-2.6c0.5-0.8,1.2-1.6,2.2-2.3c1-0.7,2.4-1.2,4.1-1.6
		c1.7-0.4,3.5-0.9,5.2-1.6c1.8-0.7,3.3-1.5,4.7-2.5c1.3-1,2.3-2,2.9-3.2c0.6-1.2,0.6-2.4,0-3.7c-0.4,0.6-1,1.2-1.7,1.7
		c-0.8,0.5-1.6,0.8-2.6,1c-1,0.2-2,0.3-3,0.1c-1.1-0.1-2.1-0.4-3-1c1.4-0.4,2.4-0.9,3-1.8c0.6-0.8,1-1.8,1.1-3
		c0.1-1.2,0.1-2.5-0.1-4c-0.2-1.5-0.4-3-0.7-4.6c-0.2-1.6-0.4-3.3-0.5-5c-0.1-1.7,0-3.4,0.3-5.1c0.3-1.7,0.9-3.3,1.8-4.9
		c0.9-1.6,2.3-3,4.1-4.4c1.3-1,2.8-1.8,4.3-2.3c1.5-0.5,3.1-0.7,4.7-0.7c1.6,0,3.2,0.3,4.8,0.8c1.6,0.5,3,1.3,4.4,2.3
		c1.8,1.4,3.2,2.8,4.1,4.4c0.9,1.6,1.5,3.2,1.8,4.9c0.3,1.7,0.4,3.4,0.3,5.1c-0.1,1.7-0.3,3.4-0.5,5c-0.2,1.6-0.4,3.2-0.7,4.6
		c-0.2,1.5-0.3,2.8-0.1,4c0.1,1.2,0.5,2.2,1,3s1.6,1.4,3,1.8c-1,0.5-2,0.9-3,1s-2,0.1-3-0.1c-1-0.2-1.8-0.6-2.6-1.1
		c-0.8-0.5-1.4-1-1.7-1.7c-0.6,1.3-0.6,2.6,0,3.7c0.6,1.2,1.6,2.2,2.9,3.2c1.3,1,2.9,1.8,4.7,2.5C118.9,54.1,120.7,54.7,122.4,55.1z
		"/>
</g>
<circle class="st2" cx="74.3" cy="53.7" r="20"/>
<text transform="matrix(1 0 0 1 68.8598 59.9503)" class="st3 st4"></text>
</svg>
