<?xml version="1.0" encoding="utf-8"?>
<!-- Generator: Adobe Illustrator 23.1.1, SVG Export Plug-In . SVG Version: 6.00 Build 0)  -->
<svg version="1.1" id="Layer_1" xmlns="http://www.w3.org/2000/svg" xmlns:xlink="http://www.w3.org/1999/xlink" x="0px" y="0px"
	 viewBox="0 0 148.6 79.8" style="enable-background:new 0 0 148.6 79.8;" xml:space="preserve">
<style type="text/css">
	.st0{fill:#008B98;}
	.st1{fill:#8BC53F;}
	.st2{fill:#FFFFFF;stroke:#000000;stroke-miterlimit:10;}
</style>
<g>
	<path class="st1" d="M65.4,68.4v2.4h-60v-2.5c0-1.7,0.1-3.2,0.2-4.5c0.1-1.3,0.4-2.5,0.9-3.5c0.5-1,1.3-1.8,2.4-2.5
		s2.6-1.3,4.5-1.7c2.1-0.5,4.2-1,6.1-1.5c2-0.5,3.6-1.2,4.9-2c1.3-0.8,2.2-1.8,2.6-3c0.4-1.2,0.1-2.7-0.9-4.6
		c-3-5.5-4.7-10.3-5.3-14.6c-0.6-4.2-0.3-7.8,0.8-10.7c1.1-2.9,2.9-5.1,5.4-6.6c2.5-1.5,5.3-2.3,8.5-2.3c3.1,0,5.9,0.7,8.4,2.2
		c2.5,1.5,4.2,3.7,5.4,6.5s1.4,6.4,0.8,10.7c-0.6,4.3-2.3,9.2-5.3,14.7c-1,1.8-1.2,3.3-0.8,4.5c0.4,1.2,1.2,2.2,2.5,3
		c1.3,0.8,2.9,1.5,4.9,2c2,0.5,4,1,6.2,1.5c1.9,0.5,3.4,1,4.5,1.8c1.1,0.7,1.9,1.6,2.4,2.6c0.5,1,0.8,2.2,0.9,3.5
		C65.3,65.2,65.4,66.7,65.4,68.4z"/>
</g>
<rect x="98.2" y="14.1" class="st0" width="21" height="6"/>
<rect x="98.2" y="26.1" class="st0" width="21" height="6"/>
<rect x="98.2" y="38.1" class="st0" width="21" height="6"/>
<g>
	<path d="M67.2,39.3l11.3,31.1v0.4h-7.3l-2.5-7.5H57l-2.5,7.5h-7.2v-0.4l11.3-31.1H67.2z M58.9,57.7h8l-4-12L58.9,57.7z"/>
	<path d="M81.2,60.6v-5.7h14.4v5.7H81.2z"/>
	<path d="M118.1,48.9v2.9l-10.2,13.5h10.1v5.5H98.5v-3l10.3-13.4h-9.6l0.7-5.5H118.1z"/>
</g>
</svg>
