<svg width="88" height="90" viewBox="0 0 88 90" fill="none" xmlns="http://www.w3.org/2000/svg">
<rect opacity="0.01" width="88" height="90" fill="white"/>
<path fill-rule="evenodd" clip-rule="evenodd" d="M41.5105 34.6113C37.4825 34.6113 34.2378 31.2811 34.2378 27.1472C34.2378 23.0132 37.4825 19.6831 41.5105 19.6831C45.5384 19.6831 48.7832 23.0132 48.7832 27.1472C48.7832 31.2811 45.5384 34.6113 41.5105 34.6113ZM55.4965 39.2046L49.2308 32.7739C50.3497 31.1663 51.021 29.2141 51.021 27.1471C51.021 21.7499 46.7692 17.3864 41.5105 17.3864C36.2518 17.3864 32 21.75 32 27.1471C32 32.5442 36.2517 36.9079 41.5105 36.9079C43.5244 36.9079 45.4266 36.2189 46.993 35.0705L53.2587 41.5012C53.8182 42.0754 54.8252 42.0754 55.4965 41.5012C56.1678 40.8122 56.1678 39.8936 55.4965 39.2046Z" fill="#999999"/>
<mask id="mask0_0_4979" style="mask-type:alpha" maskUnits="userSpaceOnUse" x="32" y="17" width="24" height="25">
<path fill-rule="evenodd" clip-rule="evenodd" d="M41.5105 34.6113C37.4825 34.6113 34.2378 31.2811 34.2378 27.1472C34.2378 23.0132 37.4825 19.6831 41.5105 19.6831C45.5384 19.6831 48.7832 23.0132 48.7832 27.1472C48.7832 31.2811 45.5384 34.6113 41.5105 34.6113ZM55.4965 39.2046L49.2308 32.7739C50.3497 31.1663 51.021 29.2141 51.021 27.1471C51.021 21.7499 46.7692 17.3864 41.5105 17.3864C36.2518 17.3864 32 21.75 32 27.1471C32 32.5442 36.2517 36.9079 41.5105 36.9079C43.5244 36.9079 45.4266 36.2189 46.993 35.0705L53.2587 41.5012C53.8182 42.0754 54.8252 42.0754 55.4965 41.5012C56.1678 40.8122 56.1678 39.8936 55.4965 39.2046Z" fill="white"/>
</mask>
<g mask="url(#mask0_0_4979)">
</g>
</svg>
