<svg xmlns="http://www.w3.org/2000/svg" viewBox="0 0 148.62 79.79"><g data-name="Layer 2"><g data-name="Crafticons - Simple Set"><g data-name="Layer 2"><path d="M72.53 79.79s-1.78-27.44-13.27-43.66S34.1 24.06 28.69 7.74c-.19-.35-5.09-.78-2.75 6.82s7.82 17.71 7.82 17.71S10 23.39.63 0c0 0-3.94 29.68 8 46.61s49.24 31.93 64 33.18z" fill="#008b98"/><path d="M76.09 79.79s1.77-27.44 13.27-43.66 25.16-12.07 30.56-28.39c.2-.35 5.1-.78 2.75 6.82s-7.82 17.71-7.82 17.71S138.64 23.39 148 0c0 0 3.94 29.68-8 46.61S90.8 78.54 76.09 79.79z" fill="#8bc53f"/></g></g></g></svg>