<svg xmlns="http://www.w3.org/2000/svg" xmlns:xlink="http://www.w3.org/1999/xlink" viewBox="0 0 151.8 107.71"><defs><style>.cls-2{fill:#929497}.cls-3,.cls-6{fill:#505454}.cls-4{fill:#008b98}.cls-5{fill:#8bc53f}.cls-6{opacity:.2;mix-blend-mode:multiply}.cls-11{fill:#bbbdbf}</style><linearGradient id="linear-gradient" x1="52.79" y1="90.18" x2="91.49" y2="90.18" gradientUnits="userSpaceOnUse"><stop offset="0" stop-color="#fff"/><stop offset="1" stop-color="#e6e7e8"/></linearGradient><linearGradient id="linear-gradient-2" x1="124.59" y1="70.54" x2="142.42" y2="70.54" xlink:href="#linear-gradient"/><linearGradient id="linear-gradient-3" x1="115.21" y1="89.51" x2="151.8" y2="89.51" xlink:href="#linear-gradient"/></defs><g style="isolation:isolate"><g id="Layer_2" data-name="Layer 2"><g id="Crafticons_-_Simple_Set" data-name="Crafticons - Simple Set"><g id="Layer_5" data-name="Layer 5"><path class="cls-2" d="M44.87 22.14c0-1.64-3-3-6.73-3a12.35 12.35 0 0 0-4.67.83 3.42 3.42 0 0 0-2 1.78 1 1 0 0 0 0 .35c0 1.62 3 2.95 6.72 2.95s6.68-1.29 6.68-2.91z"/><path class="cls-2" d="M44.87 25.47v-2.74c-.08 1.61-3.06 2.9-6.73 2.9s-6.65-1.29-6.72-2.9v2.91c.23 1.55 3.14 2.77 6.71 2.77s6.49-1.22 6.72-2.77z"/><path class="cls-2" d="M44.87 28.93v-2.74c-.08 1.6-3.06 2.89-6.73 2.89s-6.65-1.29-6.72-2.89v2.9c.23 1.54 3.14 2.76 6.71 2.76s6.49-1.22 6.72-2.76z"/><path class="cls-2" d="M44.87 32.38v.18c-.23 1.54-3.15 2.76-6.72 2.76a14.35 14.35 0 0 1-2.62-.23v-.22c-.12-1-1-2-2.46-2.61a9.16 9.16 0 0 0-1.63-.54v-2.07c.07 1.6 3.06 2.89 6.72 2.89s6.65-1.29 6.73-2.89v2.73z"/><path class="cls-2" d="M44.87 35.84V36c-.23 1.54-3.15 2.76-6.72 2.76a14.35 14.35 0 0 1-2.62-.23v-2.77a14.33 14.33 0 0 0 2.62.24c3.67 0 6.65-1.29 6.73-2.89v2.73z"/><path class="cls-2" d="M44.87 39.3v.19a2 2 0 0 1-.72 1.14 12.28 12.28 0 0 0-3.61.83 5.73 5.73 0 0 0-1.27.74h-1.11a14.33 14.33 0 0 1-2.64-.2v-2.78a14.35 14.35 0 0 0 2.62.23c3.67 0 6.65-1.28 6.73-2.88v2.73zm-10.18-4.19c0-1.62-3-2.94-6.73-2.94a12.33 12.33 0 0 0-4.67.82 3.5 3.5 0 0 0-2 1.78 1.27 1.27 0 0 0-.05.34c0 1.63 3 3 6.73 3s6.72-1.37 6.72-3z"/><path class="cls-2" d="M34.69 38.45v-2.73c-.07 1.6-3.05 2.89-6.72 2.89s-6.65-1.29-6.73-2.89v2.89c.22 1.54 3.13 2.77 6.71 2.77s6.49-1.23 6.71-2.77z"/><path class="cls-2" d="M34.69 41.91v-2.73c-.07 1.59-3.05 2.88-6.72 2.88s-6.65-1.29-6.73-2.88v2.9c.22 1.55 3.13 2.77 6.71 2.77s6.49-1.22 6.71-2.77z"/><path class="cls-2" d="M34.69 45.37v-2.74c-.07 1.6-3.05 2.89-6.72 2.89s-6.65-1.29-6.73-2.89v2.9c.22 1.54 3.13 2.76 6.71 2.76s6.49-1.22 6.71-2.76zm17.57-1.02c0-1.63-3-3-6.73-3a12.39 12.39 0 0 0-4.67.83 3.45 3.45 0 0 0-2 1.78 1.27 1.27 0 0 0 0 .34c0 1.63 3 2.95 6.72 2.95s6.68-1.25 6.68-2.9z"/><path class="cls-2" d="M52.26 47.69V45c-.08 1.6-3.06 2.9-6.73 2.9s-6.64-1.3-6.72-2.9v2.91c.23 1.54 3.14 2.77 6.71 2.77s6.49-1.23 6.72-2.77z"/><path class="cls-3" d="M29.17 30.62V18.34h3.24l-6.59-8.7-6.58 8.7h3.24V31.1h1.4a15.43 15.43 0 0 1 4.12-.53c.36 0 .77.02 1.17.05z"/><path class="cls-4" d="M46.44 22.48a2.29 2.29 0 0 1 0 .25v2.91a2.13 2.13 0 0 1 0 .27 2.45 2.45 0 0 1 0 .27v2.92a2.64 2.64 0 0 1 0 .28 2.11 2.11 0 0 1 0 .26v2.92a2.28 2.28 0 0 1 0 .27 2.45 2.45 0 0 1 0 .27V36a2.45 2.45 0 0 1 0 .27 2.45 2.45 0 0 1 0 .27v2.92a1.27 1.27 0 0 1 0 .34 10.65 10.65 0 0 1 6.18 2V16.47h3.24l-6.59-8.7-6.59 8.7h3.22v3.9a3.05 3.05 0 0 1 .56 1.77c0 .11-.01.23-.02.34z"/><path class="cls-5" d="M41.79 18V8.7H45L38.44 0l-6.58 8.7h3.24v9.18a15.76 15.76 0 0 1 3-.29 15.53 15.53 0 0 1 3.69.41z"/><path class="cls-6" d="M49.31 40.27a8.07 8.07 0 0 1 3.29 1.57V16.47h3.24l-6.59-8.7m-11.11 9.82a15.53 15.53 0 0 1 3.65.43V8.7H45L38.44 0M26.2 30.67a14.48 14.48 0 0 1 1.76-.1c.4 0 .81 0 1.21.05V18.34h3.24l-6.59-8.7"/><path class="cls-3" d="M14.17 35.23l.16-.07.47-.18h.37a1.74 1.74 0 0 1 1.55 1.22l.15.4.1.28.15.4 1.43 3.91a1.78 1.78 0 0 1-.27 1.82l-4.38 4.22a1.39 1.39 0 0 1-1.08.38L8 47.38l3.12-2.84L15 41l-.5-1.38-.61-1.62-.1-.29-.15-.4a1.74 1.74 0 0 1 .36-1.98zm-.83 12.98a1.68 1.68 0 0 1-.16 3.27l-7.42-.36a1.68 1.68 0 0 1 .15-3.27z"/><path class="cls-2" d="M7.3 45.91a1.4 1.4 0 0 1-.92-.43l-1.95-2.16-.43.38 2 2.15a1.9 1.9 0 0 0 1.31.61A1.87 1.87 0 0 0 8.64 46l5.68-5.15-.2-.56-5.85 5.28a1.38 1.38 0 0 1-.97.34zm11.33-11.55a1.77 1.77 0 0 1 .16.22 1.29 1.29 0 0 1 .18.74 1.37 1.37 0 0 1-.43.93l-.78.7.2.56.95-.86a1.9 1.9 0 0 0 .61-1.31 1.87 1.87 0 0 0-.26-1.05A1.73 1.73 0 0 0 19 34l-1.95-2.15-.41.37zm-6.38-7.03a1.89 1.89 0 0 0-1.36.49L.62 37.14A1.91 1.91 0 0 0 0 38.45a1.87 1.87 0 0 0 .26 1 1.7 1.7 0 0 0 .23.3l.19.25.41-.37-.19-.2a.83.83 0 0 1-.16-.21A1.32 1.32 0 0 1 1 37.55l10.27-9.32a1.36 1.36 0 0 1 1-.35 1.39 1.39 0 0 1 .93.44l.19.21.41-.37-.2-.21a1.87 1.87 0 0 0-1.35-.62z"/><path class="cls-2" transform="rotate(-42.23 8.877 35.923)" d="M.06 34.41H17.7v3.04H.06z"/><path class="cls-2" d="M12.4 39.34a.34.34 0 0 0-.46 0L7 43.78a.33.33 0 0 0 0 .46.32.32 0 0 0 .45 0l4.91-4.46a.32.32 0 0 0 0-.46zm-.77-.85a.33.33 0 0 0-.46 0l-4.92 4.44a.33.33 0 0 0 0 .46.33.33 0 0 0 .46 0L11.6 39a.34.34 0 0 0 0-.46zm35.76 60.36l-1.1-.11q-.55-.06-1.11-.15-1.11-.18-2.19-.45a25.49 25.49 0 0 1-11.36-6.27 24.35 24.35 0 0 1-5-6.8 23.91 23.91 0 0 1-2.33-7.88 23.63 23.63 0 0 0 3.42 7.24 23 23 0 0 0 5.53 5.48 22 22 0 0 0 6.86 3.18 20.82 20.82 0 0 0 3.66.66c.61.06 1.22.08 1.83.08h.91l.94-.06z"/><path class="cls-2" d="M47.15 101.6l-.89-10.56 5.73 4.84-4.84 5.72zm16.14-79.94l1.1.1 1.11.16c.74.11 1.47.27 2.19.45a25.28 25.28 0 0 1 11.36 6.26 24.44 24.44 0 0 1 5 6.8 23.91 23.91 0 0 1 2.33 7.88A23.37 23.37 0 0 0 83 36.08a22.44 22.44 0 0 0-5.52-5.48 21.76 21.76 0 0 0-6.86-3.19 20.88 20.88 0 0 0-3.65-.66c-.62-.05-1.23-.07-1.84-.07h-.91l-.94.06z"/><path class="cls-2" d="M63.53 18.9l.89 10.56-5.73-4.83 4.84-5.73z"/><path class="cls-3" transform="rotate(-13.85 20.715 63.674)" d="M3.88 53.77H37.5v19.78H3.88z"/><path d="M30.46 52.58L6.89 58.39a4.93 4.93 0 0 1-2.34 3.88L7 72.4a4.9 4.9 0 0 1 3.88 2.35l23.57-5.82a4.9 4.9 0 0 1 2.35-3.87l-2.47-10.14a4.92 4.92 0 0 1-3.87-2.34z" fill="#a6a8ab"/><path d="M19 56.93c-3 .74-4.67 4.35-3.75 8.07s4.08 6.12 7.07 5.39S27 66 26.1 62.33 22 56.2 19 56.93zm3.91 8.71a2.09 2.09 0 0 1-1 .94l.24 1a1.19 1.19 0 0 1-.35.15 1.72 1.72 0 0 1-.39 0l-.22-.91h-.07l-.51.11h-.44a2.94 2.94 0 0 1-.42 0h-.45a4.58 4.58 0 0 1 0-.53v-.56a3.64 3.64 0 0 0 .72 0 4.55 4.55 0 0 0 .69-.12 1.67 1.67 0 0 0 .79-.39.71.71 0 0 0 .15-.67.66.66 0 0 0-.17-.31.56.56 0 0 0-.26-.17 1.41 1.41 0 0 0-.31-.08h-.33l-.5-.09a4.56 4.56 0 0 1-.58-.12 2.09 2.09 0 0 1-.48-.22 1.41 1.41 0 0 1-.36-.37 2 2 0 0 1-.24-.58 1.7 1.7 0 0 1 .14-1.33 2 2 0 0 1 1.07-.83l-.22-.91a1.17 1.17 0 0 1 .35-.14 1.6 1.6 0 0 1 .39 0l.22.88q.35 0 .69-.06h.71a3 3 0 0 1 0 1h-.29a1.51 1.51 0 0 0-.3 0h-.36a2.65 2.65 0 0 0-.43.08l-.29.09a1.2 1.2 0 0 0-.25.16.61.61 0 0 0-.15.24.78.78 0 0 0 0 .34.74.74 0 0 0 .14.28.65.65 0 0 0 .21.16 1.12 1.12 0 0 0 .26.08l.29.05.56.09a5.14 5.14 0 0 1 .66.13 2 2 0 0 1 .54.21 1.69 1.69 0 0 1 .4.4 2.29 2.29 0 0 1 .27.68 1.86 1.86 0 0 1-.09 1.32z" fill="#58595b"/><path transform="rotate(-8.85 21.82 64.933)" fill="#808184" d="M5.02 55.04h33.62v19.79H5.02z"/><path d="M32.52 54.74l-24 3.74a4.89 4.89 0 0 1-2.68 3.65l1.63 10.32a4.92 4.92 0 0 1 3.66 2.67l24-3.74a4.88 4.88 0 0 1 2.67-3.65l-1.62-10.32a4.92 4.92 0 0 1-3.66-2.67z" fill="#e6e7e8"/><path class="cls-2" d="M20.76 58.08c-3 .48-5 3.93-4.44 7.71s3.53 6.46 6.57 6 5-3.93 4.44-7.71-3.53-6.47-6.57-6zm3.13 9a2.1 2.1 0 0 1-1.08.85L23 69a1.58 1.58 0 0 1-.37.11 1.67 1.67 0 0 1-.39 0l-.14-.93H22c-.19 0-.36.06-.52.07h-.9l-.44-.09a2.94 2.94 0 0 1 0-.51 5.58 5.58 0 0 1 .08-.57 3.27 3.27 0 0 0 .72.1 4.35 4.35 0 0 0 .7 0 1.74 1.74 0 0 0 .82-.32.68.68 0 0 0 .21-.65.63.63 0 0 0-.15-.33.5.5 0 0 0-.24-.19 1.33 1.33 0 0 0-.3-.11l-.33-.08-.49-.13a4.24 4.24 0 0 1-.57-.18 1.94 1.94 0 0 1-.45-.25 1.49 1.49 0 0 1-.33-.41 1.52 1.52 0 0 1-.18-.6 1.66 1.66 0 0 1 .25-1.3 2 2 0 0 1 1.14-.75l-.15-.92a1.58 1.58 0 0 1 .37-.11 1.27 1.27 0 0 1 .39 0l.14.89a4 4 0 0 1 .69 0 4.75 4.75 0 0 1 .71.09 3.31 3.31 0 0 1-.13 1l-.28-.06a1.45 1.45 0 0 0-.3 0h-.35l-.44.05-.3.07a.71.71 0 0 0-.26.13.66.66 0 0 0-.17.23.54.54 0 0 0 0 .34.62.62 0 0 0 .1.29.86.86 0 0 0 .2.18l.25.1.29.07.55.14.65.18a1.83 1.83 0 0 1 .5.27 1.41 1.41 0 0 1 .37.43 2.22 2.22 0 0 1 .22.7 1.87 1.87 0 0 1-.18 1.15z"/><path class="cls-11" transform="rotate(-3.85 22.792 66.296)" d="M6.03 56.4h33.62v19.78H6.03z"/><path d="M34.39 57.07L10.17 58.7a4.91 4.91 0 0 1-3 3.41l.7 10.42a4.89 4.89 0 0 1 3.41 3L35.5 73.9a4.93 4.93 0 0 1 3-3.41l-.7-10.44a4.89 4.89 0 0 1-3.41-2.98z" fill="#f1f1f2"/><path class="cls-11" d="M22.38 59.38c-3.07.2-5.35 3.47-5.1 7.28s3 6.75 6 6.55 5.35-3.47 5.1-7.29-2.93-6.75-6-6.54z"/><path class="cls-3" d="M21.54 68.62h-1.26l-.06-.85h-.45l-.07.85h-1.25l.62-4.72h1.77zm-1.34-1.69c-.05-.35-.09-.74-.13-1.17S20 65.07 20 65c0 .22-.08.58-.14 1.09 0 .33-.07.62-.1.89zm3.8 1.69h-2.13V63.9h2v.94h-.77v.9h.77v.9h-.77v1h.9zm3.24-1.39v.57a.91.91 0 0 1-.22.56.79.79 0 0 1-.47.24 3 3 0 0 1-.61 0H24.4v-4.68h.92a8.49 8.49 0 0 1 1.06 0 1 1 0 0 1 .54.25.82.82 0 0 1 .28.47 3.08 3.08 0 0 1 0 .63zM26 67.15v-2.06q0-.24-.09-.3a.5.5 0 0 0-.29-.06v3.09q.32 0 .36-.21a3.89 3.89 0 0 0 .02-.46zm46.54 32.51h46.4v3.52h-46.4zm48.57-42.48v6.51h-6.93v-17H77.29V97.9H89.5V88h5.56v10h1.36V88H102v10h12.21V83.69h6.93v6.51h11.07v-33zm-32.9 24.44h-6.94v-7h6.94zm0-11h-6.94v-7h6.94zm0-11h-6.94v-7h6.94zm11 22h-6.95v-7h6.95zm0-11h-6.95v-7h6.95zm0-11h-6.95v-7h6.95zm11 22h-6.95v-7h6.95zm0-11h-6.95v-7h6.95zm0-11h-6.95v-7h6.95zm4 21.58v-15h6.93v15z"/><path class="cls-6" d="M95.74 46.65h18.44V97.9H95.74z"/><path fill="url(#linear-gradient)" d="M60.57 75.26h23.14l7.77 11.08h-2.92v18.76H55.71V86.34h-2.92l7.78-11.08z"/><path class="cls-4" d="M83.71 75.26H60.57l-7.78 11.08h38.69l-7.77-11.08zm-28 29.84h12.54v-7.87a3.89 3.89 0 0 1 7.78 0v7.87h12.53V87.8H55.71zm26.71-11.76h2.92v2.92h-2.92zm0 3.89h2.92v2.92h-2.92zm-3.89-3.89h2.92v2.92h-2.92zm0 3.89h2.92v2.92h-2.92zm-15.71-3.89h2.92v2.92h-2.92zm0 3.89h2.92v2.92h-2.92zm-3.88-3.89h2.91v2.92h-2.91zm0 3.89h2.91v2.92h-2.91z"/><path fill="url(#linear-gradient-2)" d="M124.59 66.92h17.83v7.24h-17.83z"/><path fill="url(#linear-gradient-3)" d="M147.35 73.8h-26.92l-5.22 8.78v.48h2.61v20.1h-1.7v2.05h34.76v-2.05h-1.7v-20.1h2.62v-.48l-4.45-8.78z"/><path class="cls-5" d="M136.91 88.85H121V98.9h15.93zm-.8 9.26h-14.33v-8.46h14.33zm10.94-9.24h-7.13V100h7.13zm-.8 10.36h-5.54v-9.57h5.54z"/><path class="cls-5" d="M146.57 85.11a3.3 3.3 0 0 1-5.22 0 3.34 3.34 0 0 1-2.62 1.28 3.3 3.3 0 0 1-2.61-1.28 3.34 3.34 0 0 1-2.62 1.28 3.3 3.3 0 0 1-2.61-1.28 3.32 3.32 0 0 1-2.62 1.28 3.29 3.29 0 0 1-2.61-1.28 3.31 3.31 0 0 1-5.23 0 3.3 3.3 0 0 1-2.61 1.28v16h31.36v-16a3.3 3.3 0 0 1-2.61-1.28zm-9.16 14.3h-16.93v-11h16.93zm10.19 1.19h-8.24V88.3h8.24zm-23.88-25.53h4.05l-2.11 7.51h5.23l.93-7.51h4.04l.26 7.51h5.22l-1.44-7.51h4.05l2.62 7.51h5.23l-4.45-8.78h-26.92l-5.22 8.78h5.22l3.29-7.51zm-5.9 10.6a2.61 2.61 0 0 0 2.61-2.61h-5.22a2.61 2.61 0 0 0 2.61 2.61z"/><path class="cls-5" d="M123 85.67a2.61 2.61 0 0 0 2.62-2.61h-5.23a2.61 2.61 0 0 0 2.61 2.61zm5.27 0a2.61 2.61 0 0 0 2.62-2.61h-5.23a2.61 2.61 0 0 0 2.61 2.61z"/><path class="cls-5" d="M133.5 85.67a2.61 2.61 0 0 0 2.62-2.61h-5.23a2.61 2.61 0 0 0 2.61 2.61z"/><path class="cls-5" d="M138.73 85.67a2.62 2.62 0 0 0 2.62-2.61h-5.23a2.61 2.61 0 0 0 2.61 2.61zm5.27 0a2.61 2.61 0 0 0 2.61-2.61h-5.22a2.61 2.61 0 0 0 2.61 2.61z"/><path class="cls-5" d="M146.57 83.06a2.62 2.62 0 0 0 5.23 0zm-30.45 20.1h34.75v2.05h-34.75zM142 95.54a.64.64 0 1 0 0-1.27.64.64 0 1 0 0 1.27zm-17.41-28.62h17.83v5.8h-17.83z"/><path class="cls-4" d="M54.76 105.66h34.75v2.05H54.76z"/></g></g></g></g></svg>