<svg xmlns="http://www.w3.org/2000/svg" viewBox="0 0 148.22 148.21"><defs><style>.cls-1{fill:none}.cls-3{fill:#8ad0d3}.cls-5{fill:#e6b281}.cls-6{fill:#010101}.cls-7{opacity:.7}.cls-11,.cls-19,.cls-7{mix-blend-mode:multiply}.cls-8{clip-path:url(#clip-path)}.cls-9{fill:#eae9e9}.cls-10{clip-path:url(#clip-path-3)}.cls-12{clip-path:url(#clip-path-5)}.cls-13{clip-path:url(#clip-path-7)}.cls-14{fill:#f3f3f3}.cls-15{clip-path:url(#clip-path-9)}.cls-17{clip-path:url(#clip-path-11)}.cls-18{clip-path:url(#clip-path-13)}.cls-19{opacity:.11}.cls-20{clip-path:url(#clip-path-15)}.cls-23{clip-path:url(#clip-path-18)}.cls-24{clip-path:url(#clip-path-19)}.cls-25{clip-path:url(#clip-path-21)}.cls-27{fill:#008996}.cls-29{clip-path:url(#clip-path-23)}.cls-30{clip-path:url(#clip-path-25)}.cls-35{clip-path:url(#clip-path-31)}.cls-36{clip-path:url(#clip-path-33)}</style><clipPath id="clip-path"><path class="cls-1" d="M59.18 27.69h10.83v21.25H59.18z"/></clipPath><clipPath id="clip-path-3"><path class="cls-1" d="M37.13 50.26h44.78v74.87H37.13z"/></clipPath><clipPath id="clip-path-5"><path class="cls-1" d="M59.18 44.36h22.73v80.77H59.18z"/></clipPath><clipPath id="clip-path-7"><path class="cls-1" d="M52.44 45.71h68.4v79.95h-68.4z"/></clipPath><clipPath id="clip-path-9"><path class="cls-1" d="M83.76 22.56h12.06v22.32H83.76z"/></clipPath><clipPath id="clip-path-11"><path class="cls-1" d="M74.38 38.07h20.46v6.82H74.38z"/></clipPath><clipPath id="clip-path-13"><path class="cls-1" d="M57.07 45.71h61.51v27.88H57.07z"/></clipPath><clipPath id="clip-path-15"><path class="cls-1" d="M54.32 81.57H74.1v19.79H54.32z"/></clipPath><clipPath id="clip-path-17"><path class="cls-1" d="M69.93 61.29a9 9 0 1 0 11.94-4.22 8.79 8.79 0 0 0-3.87-.88 9 9 0 0 0-8.1 5.1"/></clipPath><clipPath id="clip-path-18"><path class="cls-1" d="M12.93 34.58h120.68v113.5H12.93z"/></clipPath><clipPath id="clip-path-19"><path class="cls-1" d="M78.01 44.61h4.91v9.92h-4.91z"/></clipPath><clipPath id="clip-path-21"><path class="cls-1" d="M78.04 49.99h15v38.09h-15z"/></clipPath><clipPath id="clip-path-23"><path class="cls-1" d="M67.59 68.46h2.74v3.95h-2.74z"/></clipPath><clipPath id="clip-path-25"><path class="cls-1" d="M53.4 69.24h18.32v12.02H53.4z"/></clipPath><clipPath id="clip-path-27"><path class="cls-1" d="M78 56.19a9 9 0 1 0 3.84.88 8.79 8.79 0 0 0-3.84-.88"/></clipPath><clipPath id="clip-path-29"><path class="cls-1" d="M69.06 62.99h16.99v11.12H69.06z"/></clipPath><clipPath id="clip-path-30"><path class="cls-1" d="M69.06 62.99h16.99v11.12H69.06z"/></clipPath><clipPath id="clip-path-31"><path class="cls-1" d="M69.53 56.66h14.98v8.27H69.53z"/></clipPath><clipPath id="clip-path-33"><path class="cls-1" d="M78.04 54.7h10.43v20.91H78.04z"/></clipPath></defs><g style="isolation:isolate"><g id="Layer_2" data-name="Layer 2"><g id="Crafticons_-_Simple_Set" data-name="Crafticons - Simple Set"><g id="Layer_7" data-name="Layer 7"><path class="cls-3" d="M74.11 0A74.11 74.11 0 1 1 0 74.11 74.11 74.11 0 0 1 74.11 0"/><path class="cls-3" d="M74.11 0A74.11 74.11 0 1 1 0 74.11 74.11 74.11 0 0 1 74.11 0"/><path d="M90.89 128.3a7.87 7.87 0 0 1-6.16-3 7.86 7.86 0 0 1-13.14-1.26 7.36 7.36 0 0 1-1.08 1.43l-.08.1-.13.11c-.13.13-.28.26-.42.38l-.12.09c-.16.12-.3.24-.45.34l-.15.08a3.78 3.78 0 0 1-.46.28l-.2.1a3.78 3.78 0 0 1-.45.21l-.23.09a2.69 2.69 0 0 1-.45.16l-.24.07a3.59 3.59 0 0 1-.47.12h-.27l-.43.06h-.26a5.9 5.9 0 0 1-.94 0h-.65l.37-2.61-.48 2.63h-.35l-.25-.07-.25-.06-.24-.07-.33-.12h-.19l-.14-.06-.48-.22a1.28 1.28 0 0 1-.17-.1l-.12-.06a2.67 2.67 0 0 1-.36-.22l-.12-.2-.16-.11-.11-.08-.14-.1-.08-.07-.24-.2-.16-.15c-.16-.16-.32-.32-.47-.49l-.11-.12a2.65 2.65 0 0 1-.21-.26q-.3.38-.63.72a7.4 7.4 0 0 1-5.25 2.17 6.55 6.55 0 0 1-.86-.06 1 1 0 0 1-.24 0 4.88 4.88 0 0 1-.62-.12l-.27-.07-.59-.19-.21-.08a5.3 5.3 0 0 1-.72-.34l-.17-.08-.58-.38-.14-.11a5.92 5.92 0 0 1-.52-.42 1.2 1.2 0 0 1-.16-.15 7.12 7.12 0 0 1-.47-.48l-.1-.12a7.18 7.18 0 0 1-1.28-2.21h-4l1.22-20.92-8.48 4.92a2.1 2.1 0 0 1-.42.22 4.68 4.68 0 0 1-5.12-.81c-.12-.11-.23-.22-.34-.34a6.33 6.33 0 0 1-.56-.77l-3.43-5.89a4.72 4.72 0 0 1-.48-3.58A4.67 4.67 0 0 1 27.09 93l11.46-6.7a2.69 2.69 0 0 1-.34-.12l-.21-.06-.41-.19-.16-.08a2.71 2.71 0 0 1-.41-.23l-.12-.07-.39-.27-.11-.09a6.4 6.4 0 0 1-2.25-6.59l6.66-26.66A6.39 6.39 0 0 1 47 47.1h.74l.31-1.85a13.08 13.08 0 0 1-2-6.93 13.34 13.34 0 0 1 13-13.26h.25a13.24 13.24 0 0 1 5.17 1.05c.39.17.79.36 1.16.56A13.31 13.31 0 0 1 71 31.9l.06-.41a13.73 13.73 0 0 1 3.77-7.42l.07-.08c.1-.11.22-.22.33-.33l.09-.08.35-.32.12-.09a4.57 4.57 0 0 1 .36-.29l.15-.12.34-.25.19-.14.33-.22.22-.14.31-.19.26-.14.3-.17.28-.14.31-.15.28-.13.31-.13.3-.12.32-.12.29-.1a2.44 2.44 0 0 1 .33-.1 3 3 0 0 1 .32-.09h.06l.26-.07.32-.08h.33l.32-.06h.35L83 20h2.57l-.14 2.64.2-2.63L86 20h1l.34.06h.33l.31.07.27.07.34.1c.1 0 .19.06.29.09l.33.11.31.12.3.12.32.13.28.13.31.15.27.14a3.07 3.07 0 0 1 .31.17 2 2 0 0 1 .25.14l.44.4.22.15a3.53 3.53 0 0 1 .32.21l.18.13c.13.09.25.17.36.26l.15.12.35.29.1.08.39.34.09.08.34.34a13.94 13.94 0 0 1 3.8 7.71v2.66l2.19 9.28a8.17 8.17 0 0 1 1.25.73c.21.15.4.32.6.49s.37.36.54.55l18.61 20.95a7.29 7.29 0 0 1-.6 10.29 7.29 7.29 0 0 1-10.29-.6l-.65-.73a26.18 26.18 0 0 1-10.2 14.72l1.25 32.37h-2.5a7.89 7.89 0 0 1-7.61 5.88m-9.72-11.15h7.11v3.27a2.61 2.61 0 0 0 5.21 0v-3.27h2l-1-29.83 1.29-.8a20.92 20.92 0 0 0 9.84-17.16l.16-6.68 8.86 10a2 2 0 0 0 3-2.68L99.08 49l-.15-.16-.17-.13a2 2 0 0 0-.83-.35l-1.7-.31-3.12-13.2v-2.26a8.4 8.4 0 0 0-2.32-4.78l-.08-.08-.2-.2v-.05l-.23-.2-.09-.07-.2-.17-.15-.04-.22-.16-.12-.08-.19-.14-.14-.08-.17-.18-.14-.08a1.24 1.24 0 0 0-.2-.1l-.16-.09-.2-.1-.16-.07-.2-.08-.19-.08-.19-.07-.19-.07-.2-.05-.17-.05h-.39l-.22-.05h-3.37l-.22.05h-.18l-.19.06-.2.06-.19.05-.2.07-.19.07-.18.07-.2.09-.17.07-.19.1-.16.08-.21.11-.14.09-.2.12-.14.08-.2.14-.09.07-.24.16-.13-.01a2.13 2.13 0 0 0-.22.18l-.07.07-.23.19v.05a1.52 1.52 0 0 0-.22.22l-.07.07a8.43 8.43 0 0 0-2.31 4.67v.44l-.06.13v.69a9.61 9.61 0 0 0 .08 1.18l.07.49-3 12.67-1.7.31a2 2 0 0 0-1.14.64l-3.83 4.23L65.13 44l.67-.9a8 8 0 0 0-2.61-11.8 6.44 6.44 0 0 0-.7-.34 7.73 7.73 0 0 0-3.09-.63h-.17a8 8 0 0 0-7.83 8 7.92 7.92 0 0 0 1.6 4.75l.67.9-1.42 8.39H47a1.11 1.11 0 0 0-1.08.85l-6.64 26.66a1.14 1.14 0 0 0 .4 1.17h.3a1.34 1.34 0 0 0 .35 0h.1a.33.33 0 0 0 .13 0 .77.77 0 0 0 .19-.07l.19-.11a.85.85 0 0 0 .19-.19 1.07 1.07 0 0 0 .23-.45L46.09 62l5.19.79L50 85.77 30.23 97.25l2.86 4.92 16.47-9.58-1.47 25.15h3.19v2.62a2.08 2.08 0 0 0 .48 1.35l.06.06.13.14.15.13h.06a.91.91 0 0 0 .16.11h1.05a2.14 2.14 0 0 0 1.51-.62 2.12 2.12 0 0 0 .63-1.51v-2.62H63v2.64a2 2 0 0 0 .49 1.32v.07a1.84 1.84 0 0 0 .14.14l.25.21h.05l.1.07a.13.13 0 0 1 .06 0h.12l.19.07h1.65l.11-.07h.07l.11-.09h.06l.1-.1a2.09 2.09 0 0 0 .61-1.49v-2.63h3.39v-.59H76v3.27a2.6 2.6 0 1 0 5.19 0zm-11.84-19.4l-.87-14.84L72.91 86l.75.49 1.29.81-.35 10.38z" fill="#fff"/><path class="cls-5" d="M59.38 48.94A10.63 10.63 0 1 1 70 38.32a10.63 10.63 0 0 1-10.62 10.62"/><path class="cls-6" d="M59.38 48.59a10.61 10.61 0 0 1-8.48-4.23l-.9 5.58h18.82l-1-5.58a10.58 10.58 0 0 1-8.48 4.23"/><path class="cls-6" d="M59.38 27.69A10.63 10.63 0 1 0 70 38.32a10.63 10.63 0 0 0-10.62-10.63m0 20.59c-4.11 0-7.45-5.84-7.45-10a7.46 7.46 0 1 1 14.91 0c0 4.12-3.33 10-7.46 10"/><g class="cls-7"><g class="cls-8"><g class="cls-8"><path class="cls-9" d="M59.38 27.69h-.2v21.25h.2a10.63 10.63 0 1 0 0-21.25"/></g></g></g><path class="cls-5" d="M81.8 79.24l-6.66-26.65a3.79 3.79 0 0 0-3.67-2.86H47.05a3.78 3.78 0 0 0-3.66 2.86l-6.67 26.65a3.78 3.78 0 1 0 7.33 1.83l4.6-18.39v57.68a4.77 4.77 0 1 0 9.54 0V89h2.21v31.36a4.78 4.78 0 0 0 9.55 0V63l4.52 18.12a3.78 3.78 0 0 0 3.66 2.86 3.62 3.62 0 0 0 .92-.11 3.79 3.79 0 0 0 2.75-4.58"/><g class="cls-7"><g class="cls-10"><g class="cls-10"><path class="cls-9" d="M59.06 87.66h-2.2V119a4.77 4.77 0 0 1-7.41 4 4.76 4.76 0 0 0 8.74-2.63V89h.87zM47.3 61.34l-4.59 18.4a3.78 3.78 0 0 1-5.58 2.33 3.81 3.81 0 0 0 2.34 1.75 3.76 3.76 0 0 0 4.58-2.75L47.3 68zm34.5 17.9l-6.67-26.65a3.7 3.7 0 0 0-1.74-2.33 3.55 3.55 0 0 1 .4 1l6.67 26.64a3.77 3.77 0 0 1-2.75 4.58 3.62 3.62 0 0 1-.92.11 3.82 3.82 0 0 1-1.9-.52 3.75 3.75 0 0 0 3.24 1.86 3.62 3.62 0 0 0 .92-.11 3.79 3.79 0 0 0 2.75-4.58M68.6 61.61V119a4.77 4.77 0 0 1-7.41 4 4.78 4.78 0 0 0 8.81-2.64V67z"/></g></g></g><path class="cls-6" d="M81.62 78.55l-6.49-26a3.75 3.75 0 0 0-3.64-2.85H47a3.76 3.76 0 0 0-3.64 2.85l-6.51 26 7.35 1.77 4.42-17.71-3.35 57.7h28L69.94 63l4.35 17.37z"/><g class="cls-11"><g class="cls-12"><g class="cls-12"><path class="cls-9" d="M59.18 49.94h9.64l-1-5.58a10.58 10.58 0 0 1-8.48 4.23h-.2z"/><path class="cls-9" d="M81.8 79.24l-1.47-5.87-5.2-20.79a3.75 3.75 0 0 0-3.64-2.85H59.18v70.65h1.22a4.77 4.77 0 0 0 9.54 0h3.35L70 63l4.34 17.37.18.75a3.78 3.78 0 0 0 3.66 2.86 3.62 3.62 0 0 0 .92-.11 3.79 3.79 0 0 0 2.75-4.58"/></g></g></g><path class="cls-5" d="M49.87 68.21l18.61-20.94A4.66 4.66 0 0 1 72 45.71h25.6a4.59 4.59 0 0 1 3.4 1.56l18.62 20.94a4.65 4.65 0 0 1-7 6.19l-16.5-18.66v64.68a5.24 5.24 0 0 1-10.47 0V87.56h-1.84v32.86a5.24 5.24 0 0 1-10.47 0v-64.6L56.83 74.4a4.68 4.68 0 0 1-3.49 1.6 4.59 4.59 0 0 1-3.08-1.18 4.65 4.65 0 0 1-.39-6.57"/><g class="cls-7"><g class="cls-13"><g class="cls-13"><path class="cls-9" d="M71.52 55.82L55 74.4a4.64 4.64 0 0 1-2.58 1.47 5.49 5.49 0 0 0 .9.09 4.68 4.68 0 0 0 3.49-1.56l14.71-16.55zM82 120.42a5.23 5.23 0 0 1-4.33 5.15 5.5 5.5 0 0 0 .91.08 5.23 5.23 0 0 0 5.23-5.23V87.56H82zm12.31-64.68v64.68a5.22 5.22 0 0 1-4.31 5.15 5.29 5.29 0 0 0 .9.08 5.23 5.23 0 0 0 5.23-5.23V57.78zm25.35 12.47L101 47.27a4.59 4.59 0 0 0-3.47-1.56h-1.77a4.61 4.61 0 0 1 3.47 1.56l18.62 20.94a4.65 4.65 0 0 1-.38 6.57 4.79 4.79 0 0 1-2.18 1.09 4.65 4.65 0 0 0 4.37-7.66"/></g></g></g><path class="cls-14" d="M98.52 46.31H71.01l3.51-14.89h20.49l3.51 14.89z"/><path class="cls-5" d="M84.66 44.88a11.16 11.16 0 1 1 11.16-11.15 11.16 11.16 0 0 1-11.16 11.15"/><path class="cls-14" d="M95.58 31.42a11.15 11.15 0 0 0-21.83 0zM112 73.58l6.6-6.59L101 47.27a4.59 4.59 0 0 0-3.47-1.56H72a4.66 4.66 0 0 0-3.49 1.56L51 67l6.6 6.59 15.74-17.77-2.11 64.56h27l-2.11-64.64z"/><path class="cls-14" d="M95.79 32.83a11.16 11.16 0 0 0-22.25 0z"/><path class="cls-6" d="M74.23 29.78a8.35 8.35 0 0 0-.48 1.64h21.83a10 10 0 0 0-.48-1.64z"/><g class="cls-7"><g class="cls-15"><g class="cls-15"><path class="cls-9" d="M84.66 22.56h-.9a11.16 11.16 0 0 1 0 22.25h.9a11.16 11.16 0 1 0 0-22.32"/></g></g></g><g class="cls-17" opacity=".1"><g class="cls-17"><path class="cls-6" d="M74.38 38.07a11.17 11.17 0 0 0 20.46.25l-10.08-.13z"/></g></g><path class="cls-5" d="M80.32 40.05a4.68 4.68 0 0 0 8.57.1h-4.22z"/><g class="cls-7"><g class="cls-18"><g class="cls-18"><path class="cls-9" d="M69.61 47.11H95.7a4.72 4.72 0 0 1 3.54 1.59L117 68.62l1.58-1.62L101 47.27a4.59 4.59 0 0 0-3.47-1.56H72a4.65 4.65 0 0 0-3.47 1.54 4.69 4.69 0 0 1 1.11-.14m1.37 10.31L57.07 73.1l.48.48 13.43-15.1.03-1.06z"/></g></g></g><g class="cls-19"><g class="cls-20"><g class="cls-20"><path class="cls-6" d="M73.38 83.19l-1.63-1.62L54.32 99l1.62 1.63a2.47 2.47 0 0 0 3.5 0l13.94-13.94a2.47 2.47 0 0 0 0-3.5"/></g></g></g><g clip-path="url(#clip-path-17)"><path d="M84.93 62a1.8 1.8 0 0 0-.61-1.34 1.81 1.81 0 0 0 .61-1.35 1.79 1.79 0 0 0-1.78-1.79h-3a1.81 1.81 0 0 0-.87.22v-2.46A1.22 1.22 0 0 0 78 54.06v21.26a1.22 1.22 0 0 0 1.22-1.22v-2.47a1.77 1.77 0 0 0 .86.22h3a1.79 1.79 0 0 0 1.19-3.13 1.78 1.78 0 0 0 0-2.7 1.76 1.76 0 0 0 .62-1.34 1.81 1.81 0 0 0-.61-1.35 1.81 1.81 0 0 0 .65-1.33m-1.81 9.06h-3a.86.86 0 0 1-.36-.07 1.35 1.35 0 0 0 .36-.91 1.32 1.32 0 0 0-.36-.9h3.36a1.36 1.36 0 0 0 .29 0 1 1 0 0 1-.29 1.91m.3-2.74a1.53 1.53 0 0 0-.3 0h-3a1.36 1.36 0 0 0-.29 0h-.07a1.35 1.35 0 0 0 .36-.91 1.39 1.39 0 0 0-.35-.91h.07a1.33 1.33 0 0 0 .28 0h3.29a1 1 0 0 1 0 1.86m0-2.7h-3.29a1.36 1.36 0 0 0-.29 0h-.07a1.33 1.33 0 0 0 0-1.82h.07a2.85 2.85 0 0 0 .29 0h3.29a1 1 0 0 1 0 1.85m0-2.69a2.85 2.85 0 0 0-.29 0h-3.36a1.3 1.3 0 0 0 .36-.9 1.38 1.38 0 0 0-.35-.92h.07a1.36 1.36 0 0 0 .29 0h3a1.36 1.36 0 0 0 .29 0 1 1 0 0 1 0 1.86m0-2.69a1.36 1.36 0 0 0-.29 0h-3a1.37 1.37 0 0 0-.29 0h-.07a1.35 1.35 0 0 0 .36-.91 1.3 1.3 0 0 0-.36-.91 1.16 1.16 0 0 1 .37-.07h3a1 1 0 0 1 .28 1.91" fill="#e5e5e5"/></g><g class="cls-23"><g class="cls-7"><g class="cls-24"><g class="cls-24"><path class="cls-9" d="M78 44.61v9.91a5 5 0 0 0 0-9.91"/></g></g></g><g class="cls-7"><g class="cls-25"><g class="cls-25"><path class="cls-9" d="M93 64.35l-7.8-8.77a2 2 0 0 0-1.17-.65L82.91 50A5 5 0 0 1 78 54.52v33.56h6l-.93-28.73 7 7.93z"/></g></g></g><path d="M70.41 68.21l1.19 2.05a.87.87 0 0 1-.32 1.19L60 78a.87.87 0 0 1-1.19-.32l-1.19-2a.86.86 0 0 1 .32-1.18l11.3-6.58a.88.88 0 0 1 1.19.31" fill="#00a1aa"/><path class="cls-27" d="M52.63 78.17l1.53 2.62a.93.93 0 0 0 1.26.34L67.7 74a.93.93 0 0 0 .3-1.29l-1.48-2.61a.94.94 0 0 0-1.27-.34L53 76.91a.93.93 0 0 0-.34 1.26"/><g class="cls-29" opacity=".61"><g class="cls-29"><path class="cls-27" d="M68.26 68.46l-.67.39a10.33 10.33 0 0 0 2.06 3.55l.67-.39a10.75 10.75 0 0 1-2.06-3.55"/></g></g><g class="cls-19"><g class="cls-30"><g class="cls-30"><path class="cls-6" d="M68.16 73.27l3.12-1.82a.87.87 0 0 0 .32-1.19l-.6-1-17.6 10.23.76 1.3a.93.93 0 0 0 1.26.34L67.7 74a.94.94 0 0 0 .46-.71"/></g></g></g><path class="cls-27" d="M87.3 70a10.46 10.46 0 1 0-14.09 4.48A10.47 10.47 0 0 0 87.3 70m-16.66-4.2a7.39 7.39 0 1 1 8 6.77 7.4 7.4 0 0 1-8-6.77"/><path d="M74.16 73.23A9 9 0 1 1 86.1 69a9 9 0 0 1-11.94 4.22" fill="#68b8c0"/></g><g clip-path="url(#clip-path-27)"><path class="cls-14" d="M84.93 62a1.8 1.8 0 0 0-.61-1.34 1.81 1.81 0 0 0 .61-1.35 1.79 1.79 0 0 0-1.78-1.79h-3a1.71 1.71 0 0 0-.87.23v-2.47a1.22 1.22 0 0 0-2.43 0v2.45a1.74 1.74 0 0 0-.87-.23h-3a1.79 1.79 0 0 0-1.19 3.14 1.83 1.83 0 0 0-.68 1.36 1.78 1.78 0 0 0 .62 1.35 1.77 1.77 0 0 0-.62 1.34 1.83 1.83 0 0 0 .61 1.31 1.78 1.78 0 0 0 0 2.69 1.79 1.79 0 0 0 1.17 3.14h3a1.59 1.59 0 0 0 .87-.22v2.49a1.22 1.22 0 1 0 2.43 0v-2.47a1.77 1.77 0 0 0 .86.22h3a1.79 1.79 0 0 0 1.19-3.13 1.78 1.78 0 0 0 0-2.7 1.76 1.76 0 0 0 .62-1.34 1.81 1.81 0 0 0-.61-1.35 1.81 1.81 0 0 0 .68-1.33m-1.78-3.67a1 1 0 0 1 .28 1.91 1.36 1.36 0 0 0-.29 0h-3a1.37 1.37 0 0 0-.29 0h-.07a1.35 1.35 0 0 0 .36-.91 1.3 1.3 0 0 0-.36-.91 1.16 1.16 0 0 1 .37-.07zm-11.22 1a1 1 0 0 1 1-1h3a1 1 0 0 1 .35.07 1.39 1.39 0 0 0-.35.91 1.34 1.34 0 0 0 .35.91h-3.65a1 1 0 0 1-.69-.93m0 2.7a1 1 0 0 1 .69-.93h3.65a1.32 1.32 0 0 0-.36.9 1.39 1.39 0 0 0 .35.91h-3.64a1 1 0 0 1-.68-.92m0 2.69a1 1 0 0 1 .69-.93 1.43 1.43 0 0 0 .29 0h3.36a1.4 1.4 0 0 0-.36.91 1.35 1.35 0 0 0 .36.91h-.07a1.36 1.36 0 0 0-.29 0h-3a1.36 1.36 0 0 0-.29 0 1 1 0 0 1-.69-.93m0 2.69a1 1 0 0 1 .7-.93 1.33 1.33 0 0 0 .28 0h3a1.43 1.43 0 0 0 .29 0h.07a1.34 1.34 0 0 0 0 1.82h-.06a1.51 1.51 0 0 0-.3 0h-3.29a1 1 0 0 1-.69-.93m1 3.68a1 1 0 0 1-1-1 1 1 0 0 1 .69-.92h3.29a1.36 1.36 0 0 0 .29 0h.07a1.32 1.32 0 0 0-.36.9 1.35 1.35 0 0 0 .36.91.89.89 0 0 1-.36.07zm11.22-1a1 1 0 0 1-1 1h-3a.86.86 0 0 1-.36-.07 1.4 1.4 0 0 0 .36-.91 1.32 1.32 0 0 0-.36-.9h3.36a1.36 1.36 0 0 0 .29 0 1 1 0 0 1 .69.93m0-2.69a1 1 0 0 1-.68.93 1.53 1.53 0 0 0-.3 0h-3a1.36 1.36 0 0 0-.29 0h-.07a1.35 1.35 0 0 0 .36-.91 1.39 1.39 0 0 0-.35-.91h.07a1.33 1.33 0 0 0 .28 0h3.29a1 1 0 0 1 .68.93m0-2.69a1 1 0 0 1-.69.92h-3.29a1.36 1.36 0 0 0-.29 0h-.07a1.33 1.33 0 0 0 0-1.82h.07a2.85 2.85 0 0 0 .29 0h3.29a1 1 0 0 1 .68.93m-1-1.8h-3.36a1.3 1.3 0 0 0 .36-.9 1.38 1.38 0 0 0-.35-.92h.07a1.36 1.36 0 0 0 .29 0h3a1.36 1.36 0 0 0 .29 0 1 1 0 0 1 0 1.86 2.85 2.85 0 0 0-.29 0"/></g><g class="cls-23"><g clip-path="url(#clip-path-29)"><g clip-path="url(#clip-path-30)"><path class="cls-9" d="M75.19 67a22 22 0 0 1-5.86-4A8.95 8.95 0 0 0 81 73.59a9 9 0 0 0 5-4.49A20.61 20.61 0 0 1 75.19 67"/></g></g><g class="cls-11"><g class="cls-35"><g class="cls-35"><path class="cls-9" d="M70.36 61.51a8.43 8.43 0 0 0-.83 3.42 9.55 9.55 0 0 1 .68-2 9.41 9.41 0 0 1 12.52-4.43 9.84 9.84 0 0 1 1.78 1.11 8.53 8.53 0 0 0-14.15 1.89"/></g></g></g><g class="cls-7"><g class="cls-36"><g class="cls-36"><path class="cls-9" d="M82.82 55.87A10.38 10.38 0 0 0 78 54.7v20.91a10.45 10.45 0 0 0 4.78-19.74"/></g></g></g></g></g></g></g></g></svg>